<svg width="31" height="53" viewBox="0 0 31 53" fill="none" xmlns="http://www.w3.org/2000/svg">
<path d="M2.40877 50.8445L2.4089 50.8447C2.84719 51.283 3.42502 51.5038 3.99979 51.5038V50.2539L4.00005 51.5038C4.59669 51.5037 5.16884 51.2666 5.59069 50.8447C5.59073 50.8446 5.59076 50.8446 5.5908 50.8445L28.2177 28.2167L28.2178 28.2165C28.6396 27.7946 28.8766 27.2224 28.8766 26.6258C28.8766 26.0292 28.6396 25.457 28.2178 25.035L28.2176 25.0349L5.59065 2.40888L5.59054 2.40877C5.1686 1.98696 4.59641 1.75 3.99979 1.75C3.40317 1.75 2.83097 1.98696 2.40904 2.40877L2.40877 2.40904C1.98696 2.83097 1.75 3.40317 1.75 3.99979C1.75 4.59641 1.98696 5.1686 2.40877 5.59054L2.4089 5.59067L23.445 26.6268L2.4089 47.6629L2.40877 47.663C1.98696 48.085 1.75 48.6572 1.75 49.2538C1.75 49.8504 1.98696 50.4226 2.40877 50.8445ZM3.99979 50.2538C3.74379 50.2538 3.48779 50.1558 3.29279 49.9608H4.70679C4.51929 50.1483 4.26498 50.2537 3.99979 50.2538ZM27.6266 26.6258C27.6266 26.891 27.5213 27.1453 27.3338 27.3328L3.29279 4.70679C3.10532 4.51926 3 4.26495 3 3.99979C3 3.73462 3.10532 3.48031 3.29279 3.29279C3.48031 3.10532 3.73462 3 3.99979 3C4.26495 3 4.51926 3.10532 4.70679 3.29279L27.3338 25.9188C27.5213 26.1063 27.6266 26.3606 27.6266 26.6258Z" fill="#01C7EF" stroke="#01C7EF" stroke-width="2.5"/>
</svg>
